<svg width="36" height="36" viewBox="0 0 36 36" fill="none" xmlns="http://www.w3.org/2000/svg">
<g id="Frame">
<g id="SVGRepo_iconCarrier">
<path id="Vector" fill-rule="evenodd" clip-rule="evenodd" d="M22.443 20.115C21.0525 20.205 19.5705 20.25 18 20.25C16.4295 20.25 14.9475 20.205 13.557 20.115C13.9575 27.546 16.383 33.225 18 33.225C19.617 33.225 22.041 27.5475 22.443 20.115ZM10.539 19.833C10.767 25.1895 11.9805 29.6325 13.629 32.496C7.4745 30.606 3 24.831 3 18V17.865C4.9935 18.7965 7.5045 19.449 10.539 19.833ZM3.363 14.673C5.0535 15.666 7.4415 16.383 10.5165 16.803C10.671 11.163 11.916 6.48002 13.6275 3.50402C8.505 5.07902 4.545 9.34502 3.363 14.673ZM13.5105 17.106C13.6935 9.08552 16.296 2.77502 18 2.77502C19.704 2.77502 22.3065 9.08552 22.4895 17.106C21.102 17.202 19.605 17.25 18 17.25C16.5023 17.2534 15.0049 17.2053 13.5105 17.106ZM25.461 19.833C28.4955 19.449 31.0065 18.798 33 17.8665V18C33 24.831 28.524 30.606 22.3725 32.496C24.0195 29.631 25.2315 25.1895 25.461 19.833ZM32.637 14.673C30.9465 15.666 28.5585 16.383 25.4835 16.803C25.329 11.163 24.084 6.48002 22.3725 3.50402C27.495 5.07902 31.455 9.34502 32.637 14.673Z" fill="#A69B03"/>
</g>
</g>
</svg>
