<svg width="34" height="34" viewBox="0 0 34 34" fill="none" xmlns="http://www.w3.org/2000/svg">
<g id="SVGRepo_iconCarrier">
<path id="Vector" d="M16.875 0C13.5374 0 10.2748 0.989702 7.49976 2.84395C4.72468 4.6982 2.56177 7.33371 1.28454 10.4172C0.0073117 13.5007 -0.32687 16.8937 0.324256 20.1671C0.975382 23.4406 2.58257 26.4474 4.94258 28.8074C7.30259 31.1674 10.3094 32.7746 13.5829 33.4258C16.8563 34.0769 20.2493 33.7427 23.3328 32.4655C26.4163 31.1882 29.0518 29.0253 30.9061 26.2502C32.7603 23.4752 33.75 20.2126 33.75 16.875C33.745 12.401 31.9654 8.11174 28.8019 4.94815C25.6383 1.78457 21.349 0.00505241 16.875 0ZM16.875 30C14.2791 30 11.7415 29.2302 9.58315 27.788C7.42475 26.3458 5.74249 24.296 4.74909 21.8977C3.75569 19.4994 3.49577 16.8604 4.0022 14.3144C4.50863 11.7684 5.75867 9.42979 7.59423 7.59422C9.4298 5.75866 11.7684 4.50862 14.3144 4.00219C16.8604 3.49576 19.4994 3.75568 21.8977 4.74908C24.296 5.74248 26.3459 7.42475 27.788 9.58314C29.2302 11.7415 30 14.2791 30 16.875C29.9961 20.3548 28.612 23.6909 26.1514 26.1514C23.6909 28.612 20.3548 29.9961 16.875 30ZM23.3742 21.7516C22.3507 23.1152 20.9241 24.1223 19.2965 24.6302C17.6689 25.1381 15.9227 25.1211 14.3053 24.5817C12.6879 24.0422 11.2812 23.0076 10.2843 21.6243C9.28754 20.241 8.75115 18.5792 8.75115 16.8742C8.75115 15.1691 9.28754 13.5073 10.2843 12.1241C11.2812 10.7408 12.6879 9.70615 14.3053 9.16667C15.9227 8.62719 17.6689 8.61021 19.2965 9.11814C20.9241 9.62606 22.3507 10.6331 23.3742 11.9968C23.6729 12.3943 23.8015 12.8943 23.7316 13.3867C23.6617 13.879 23.3991 14.3235 23.0016 14.6222C22.604 14.9209 22.104 15.0495 21.6117 14.9796C21.1193 14.9098 20.6749 14.6472 20.3761 14.2496C19.8252 13.5149 19.0572 12.9722 18.1807 12.6983C17.3042 12.4244 16.3637 12.4333 15.4925 12.7236C14.6214 13.0139 13.8636 13.571 13.3267 14.316C12.7897 15.0609 12.5008 15.9559 12.5008 16.8742C12.5008 17.7925 12.7897 18.6875 13.3267 19.4324C13.8636 20.1774 14.6214 20.7345 15.4925 21.0248C16.3637 21.3152 17.3042 21.324 18.1807 21.0501C19.0572 20.7763 19.8252 20.2335 20.3761 19.4988C20.6751 19.102 21.1194 18.8401 21.6114 18.7706C22.1034 18.701 22.6028 18.8297 23.0001 19.1281C23.3973 19.4266 23.6598 19.8705 23.7299 20.3624C23.8001 20.8543 23.6721 21.3539 23.3742 21.7516Z" fill="black" fill-opacity="0.49"/>
</g>
</svg>
