<svg width="40" height="40" viewBox="0 0 40 40" fill="none" xmlns="http://www.w3.org/2000/svg">
<g id="vuesax/linear/unlock">
<g id="unlock">
<path id="Vector" d="M28.3333 36.6667H11.6667C5.00001 36.6667 3.33334 35 3.33334 28.3333V25C3.33334 18.3333 5.00001 16.6667 11.6667 16.6667H28.3333C35 16.6667 36.6667 18.3333 36.6667 25V28.3333C36.6667 35 35 36.6667 28.3333 36.6667Z" stroke="#A0A603" stroke-width="1.5" stroke-linecap="round" stroke-linejoin="round"/>
<path id="Vector_2" d="M10 16.6667V13.3333C10 7.81668 11.6667 3.33334 20 3.33334C27.5 3.33334 30 6.66668 30 11.6667" stroke="#A0A603" stroke-width="1.5" stroke-linecap="round" stroke-linejoin="round"/>
<path id="Vector_3" d="M20 30.8333C22.3012 30.8333 24.1667 28.9679 24.1667 26.6667C24.1667 24.3655 22.3012 22.5 20 22.5C17.6988 22.5 15.8333 24.3655 15.8333 26.6667C15.8333 28.9679 17.6988 30.8333 20 30.8333Z" stroke="#A0A603" stroke-width="1.5" stroke-linecap="round" stroke-linejoin="round"/>
</g>
</g>
</svg>
