<svg width="65" height="65" viewBox="0 0 65 65" fill="none" xmlns="http://www.w3.org/2000/svg">
<path id="Vector" d="M32.375 64.75C27.9483 64.75 23.7883 63.91 19.895 62.23C16.0017 60.55 12.615 58.27 9.735 55.39C6.855 52.51 4.575 49.1233 2.895 45.23C1.215 41.3367 0.375 37.1767 0.375 32.75C0.375 28.3233 1.215 24.1633 2.895 20.27C4.575 16.3767 6.855 12.99 9.735 10.11C12.615 7.23 16.0017 4.95 19.895 3.27C23.7883 1.59 27.9483 0.75 32.375 0.75C33.4417 0.75 34.5083 0.816667 35.575 0.95C36.6417 1.08333 37.7083 1.20333 38.775 1.31V7.87C37.7083 7.76333 36.6417 7.64333 35.575 7.51C34.5083 7.37667 33.4417 7.31 32.375 7.31C30.9883 9.23 29.7883 11.2433 28.775 13.35C27.7617 15.4567 26.935 17.6567 26.295 19.95H35.575V26.35H24.855C24.695 27.4167 24.575 28.4833 24.495 29.55C24.415 30.6167 24.375 31.6833 24.375 32.75C24.375 33.8167 24.415 34.8833 24.495 35.95C24.575 37.0167 24.695 38.0833 24.855 39.15H39.895C40.055 38.0833 40.175 37.0167 40.255 35.95C40.335 34.8833 40.375 33.8167 40.375 32.75C40.375 31.6833 40.335 30.6167 40.255 29.55C40.175 28.4833 40.055 27.4167 39.895 26.35H46.295C46.455 27.4167 46.575 28.4833 46.655 29.55C46.735 30.6167 46.775 31.6833 46.775 32.75C46.775 33.8167 46.735 34.8833 46.655 35.95C46.575 37.0167 46.455 38.0833 46.295 39.15H57.175C57.4417 38.0833 57.6417 37.0167 57.775 35.95C57.9083 34.8833 57.975 33.8167 57.975 32.75C57.975 31.6833 57.9083 30.6167 57.775 29.55C57.6417 28.4833 57.4417 27.4167 57.175 26.35H63.735C63.9483 27.4167 64.1083 28.4833 64.215 29.55C64.3217 30.6167 64.375 31.6833 64.375 32.75C64.375 37.1767 63.535 41.3367 61.855 45.23C60.175 49.1233 57.895 52.51 55.015 55.39C52.135 58.27 48.7483 60.55 44.855 62.23C40.9617 63.91 36.8017 64.75 32.375 64.75ZM7.575 39.15H18.455C18.295 38.0833 18.175 37.0167 18.095 35.95C18.015 34.8833 17.975 33.8167 17.975 32.75C17.975 31.6833 18.015 30.6167 18.095 29.55C18.175 28.4833 18.295 27.4167 18.455 26.35H7.575C7.30833 27.4167 7.10833 28.4833 6.975 29.55C6.84167 30.6167 6.775 31.6833 6.775 32.75C6.775 33.8167 6.84167 34.8833 6.975 35.95C7.10833 37.0167 7.30833 38.0833 7.575 39.15ZM24.055 56.91C23.095 55.0967 22.255 53.2433 21.535 51.35C20.815 49.4567 20.215 47.5233 19.735 45.55H10.295C11.8417 48.27 13.7883 50.6033 16.135 52.55C18.4817 54.4967 21.1217 55.95 24.055 56.91ZM10.295 19.95H19.735C20.215 17.9767 20.815 16.0433 21.535 14.15C22.255 12.2567 23.095 10.4033 24.055 8.59C21.1217 9.55 18.4817 11.0033 16.135 12.95C13.7883 14.8967 11.8417 17.23 10.295 19.95ZM32.375 58.19C33.7617 56.27 34.9617 54.2567 35.975 52.15C36.9883 50.0433 37.815 47.8433 38.455 45.55H26.295C26.935 47.8433 27.7617 50.0433 28.775 52.15C29.7883 54.2567 30.9883 56.27 32.375 58.19ZM40.695 56.91C43.6283 55.95 46.2683 54.4967 48.615 52.55C50.9617 50.6033 52.9083 48.27 54.455 45.55H45.015C44.535 47.5233 43.935 49.4567 43.215 51.35C42.495 53.2433 41.655 55.0967 40.695 56.91ZM45.175 19.95V0.75H64.375V19.95H45.175ZM54.775 10.35H61.175V3.95H54.775V10.35Z" fill="#260F01" fill-opacity="0.2"/>
</svg>
