<svg width="36" height="36" viewBox="0 0 36 36" fill="none" xmlns="http://www.w3.org/2000/svg">
<g id="Frame" clip-path="url(#clip0_207_70)">
<g id="SVGRepo_iconCarrier">
<path id="Vector" d="M10 10C10.2652 10 10.5196 9.89464 10.7071 9.70711C10.8946 9.51957 11 9.26522 11 9V3C11 2.73478 10.8946 2.48043 10.7071 2.29289C10.5196 2.10536 10.2652 2 10 2C9.73478 2 9.48043 2.10536 9.29289 2.29289C9.10536 2.48043 9 2.73478 9 3V9C9 9.26522 9.10536 9.51957 9.29289 9.70711C9.48043 9.89464 9.73478 10 10 10Z" fill="#A69B03"/>
<path id="Vector_2" d="M30 13.5C28.0109 13.5 26.1032 12.7098 24.6967 11.3033C23.2902 9.89677 22.5 7.98912 22.5 5.99999H12.2V8.99999C12.2 9.58347 11.9682 10.143 11.5556 10.5556C11.1431 10.9682 10.5835 11.2 10 11.2C9.41654 11.2 8.85696 10.9682 8.44438 10.5556C8.0318 10.143 7.80001 9.58347 7.80001 8.99999V5.99999H3.80001C3.56204 5.99729 3.32593 6.04233 3.10567 6.13246C2.8854 6.22258 2.68545 6.35597 2.51763 6.52472C2.34981 6.69347 2.21753 6.89416 2.12863 7.11492C2.03972 7.33569 1.99599 7.57204 2.00001 7.80999V30.19C1.99604 30.4238 2.03816 30.656 2.12396 30.8735C2.20976 31.091 2.33757 31.2894 2.50007 31.4575C2.66258 31.6256 2.85661 31.76 3.07108 31.8531C3.28555 31.9462 3.51625 31.9961 3.75001 32H32.25C32.4838 31.9961 32.7145 31.9462 32.9289 31.8531C33.1434 31.76 33.3374 31.6256 33.5 31.4575C33.6625 31.2894 33.7903 31.091 33.8761 30.8735C33.9619 30.656 34.004 30.4238 34 30.19V12.34C32.8041 13.0991 31.4165 13.5015 30 13.5ZM10 26H8.00001V24H10V26ZM10 21H8.00001V19H10V21ZM10 16H8.00001V14H10V16ZM16 26H14V24H16V26ZM16 21H14V19H16V21ZM16 16H14V14H16V16ZM22 26H20V24H22V26ZM22 21H20V19H22V21ZM22 16H20V14H22V16ZM28 26H26V24H28V26ZM28 21H26V19H28V21ZM28 16H26V14H28V16Z" fill="#A69B03"/>
<path id="Vector_3" d="M30 11C32.7614 11 35 8.76142 35 6C35 3.23858 32.7614 1 30 1C27.2386 1 25 3.23858 25 6C25 8.76142 27.2386 11 30 11Z" fill="#A69B03"/>
</g>
</g>
<defs>
<clipPath id="clip0_207_70">
<rect width="36" height="36" fill="white"/>
</clipPath>
</defs>
</svg>
