<svg width="41" height="40" viewBox="0 0 41 40" fill="none" xmlns="http://www.w3.org/2000/svg">
<g id="clarity:lightning-line" clip-path="url(#clip0_32_179)">
<path id="Vector" d="M12.1889 37.7778H8.85555C8.66861 37.7744 8.48554 37.724 8.32329 37.631C8.16104 37.5381 8.02487 37.4058 7.92737 37.2462C7.82987 37.0867 7.77421 36.9051 7.76554 36.7184C7.75688 36.5316 7.79548 36.3457 7.87777 36.1778L14.4444 23.3333H7.16666C6.96642 23.335 6.76945 23.2825 6.59658 23.1815C6.42371 23.0804 6.28137 22.9345 6.1846 22.7592C6.08784 22.5839 6.04025 22.3857 6.04687 22.1855C6.05349 21.9854 6.11408 21.7908 6.22222 21.6222L18.0889 2.73333C18.1862 2.5815 18.3189 2.45563 18.4757 2.36658C18.6325 2.27754 18.8087 2.22799 18.9889 2.22222H33.9111C34.133 2.21172 34.3529 2.26796 34.5425 2.38368C34.7321 2.4994 34.8826 2.66928 34.9747 2.87141C35.0668 3.07353 35.0962 3.29862 35.0591 3.51761C35.022 3.73661 34.9202 3.93947 34.7667 4.1L24.7 15.5556H30.6778C30.8894 15.56 31.0954 15.6248 31.2714 15.7424C31.4475 15.86 31.5863 16.0254 31.6715 16.2191C31.7567 16.4129 31.7848 16.627 31.7524 16.8362C31.7201 17.0454 31.6286 17.241 31.4889 17.4L13.0111 37.4C12.9082 37.5171 12.7818 37.6113 12.6402 37.6764C12.4985 37.7415 12.3448 37.776 12.1889 37.7778ZM10.7 35.5555H11.7111L28.1222 17.7778H22.2667C22.0448 17.7883 21.8249 17.732 21.6353 17.6163C21.4457 17.5006 21.2951 17.3307 21.203 17.1286C21.111 16.9265 21.0816 16.7014 21.1186 16.4824C21.1557 16.2634 21.2576 16.0605 21.4111 15.9L31.4778 4.44444H19.6L9.13333 21.1111H16.2778C16.4647 21.1145 16.6478 21.1649 16.81 21.2578C16.9723 21.3508 17.1085 21.4831 17.206 21.6427C17.3034 21.8022 17.3591 21.9837 17.3678 22.1705C17.3764 22.3573 17.3378 22.5432 17.2555 22.7111L10.7 35.5555Z" fill="#A0A603"/>
</g>
<defs>
<clipPath id="clip0_32_179">
<rect width="40" height="40" fill="white" transform="translate(0.5)"/>
</clipPath>
</defs>
</svg>
