<svg width="36" height="36" viewBox="0 0 36 36" fill="none" xmlns="http://www.w3.org/2000/svg">
<g id="Layer_1">
<g id="SVGRepo_iconCarrier">
<path id="Vector" d="M35.9999 12.5698H6.9227V30.3882H35.9999V12.5698Z" fill="#260F01"/>
<path id="Vector_2" d="M32.5381 9.10803H3.46085V26.9264H32.5381V9.10803Z" fill="#A69B03"/>
<path id="Vector_3" d="M29.0772 5.61182H0V23.4302H29.0772V5.61182Z" fill="#BEC8D6"/>
<path id="Vector_4" d="M8.15921 14.3252C9.24062 14.3252 10.1173 13.4485 10.1173 12.3671C10.1173 11.2857 9.24062 10.4091 8.15921 10.4091C7.0778 10.4091 6.20114 11.2857 6.20114 12.3671C6.20114 13.4485 7.0778 14.3252 8.15921 14.3252Z" fill="#A69B03"/>
<path id="Vector_5" d="M8.15942 15.6449C6.28819 15.6449 4.71361 16.9112 4.24329 18.6333H12.0756C11.6052 16.9112 10.0306 15.6449 8.15942 15.6449Z" fill="#A0A603"/>
<g id="Group">
<path id="Vector_6" d="M20.4727 11.878H16.3188C15.7781 11.878 15.3398 11.4396 15.3398 10.899C15.3398 10.3583 15.7781 9.91992 16.3188 9.91992H20.4727C21.0134 9.91992 21.4517 10.3583 21.4517 10.899C21.4517 11.4396 21.0134 11.878 20.4727 11.878Z" fill="#A69B03"/>
<path id="Vector_7" d="M24.6266 15.5004H16.3188C15.7781 15.5004 15.3398 15.062 15.3398 14.5214C15.3398 13.9808 15.7781 13.5424 16.3188 13.5424H24.6266C25.1673 13.5424 25.6057 13.9808 25.6057 14.5214C25.6057 15.062 25.1673 15.5004 24.6266 15.5004Z" fill="#A69B03"/>
<path id="Vector_8" d="M24.6266 19.1229H16.3188C15.7781 19.1229 15.3398 18.6845 15.3398 18.1438C15.3398 17.6032 15.7781 17.1648 16.3188 17.1648H24.6266C25.1673 17.1648 25.6057 17.6032 25.6057 18.1438C25.6057 18.6845 25.1673 19.1229 24.6266 19.1229Z" fill="#A69B03"/>
</g>
</g>
</g>
</svg>
