<svg width="20" height="20" viewBox="0 0 20 20" fill="none" xmlns="http://www.w3.org/2000/svg">
<path id="Vector" fill-rule="evenodd" clip-rule="evenodd" d="M6.23129 0.111083C7.24338 -0.342447 8.1202 0.682053 7.80357 1.57158C6.72924 4.58988 7.38932 8.018 9.6193 10.2471C11.8606 12.4876 15.3114 13.1461 18.3395 12.0525C19.2206 11.7343 20.2173 12.6025 19.7817 13.5905C19.7688 13.6197 19.7558 13.6488 19.7427 13.678C18.9674 15.3972 17.7272 17.014 16.1227 18.098C14.4125 19.2534 12.3957 19.8707 10.3316 19.8707H10.3306C7.93035 19.8681 5.6057 19.0309 3.75517 17.5027C1.90463 15.9745 0.643452 13.8503 0.187932 11.4943C-0.267588 9.1383 0.110942 6.69732 1.2586 4.58977C2.34658 2.59181 4.17608 1.03918 6.20153 0.124463L6.23129 0.111083Z" fill="#323232"/>
</svg>
